<?xml version="1.0" encoding="utf-8"?>
<!-- Generator: Adobe Illustrator 16.0.0, SVG Export Plug-In . SVG Version: 6.00 Build 0)  -->
<!DOCTYPE svg PUBLIC "-//W3C//DTD SVG 1.1//EN" "http://www.w3.org/Graphics/SVG/1.1/DTD/svg11.dtd">
<svg version="1.1" id="Layer_1" xmlns="http://www.w3.org/2000/svg" xmlns:xlink="http://www.w3.org/1999/xlink" x="0px" y="0px"
	 width="176px" height="82px" viewBox="0 0 176 82" enable-background="new 0 0 176 82" xml:space="preserve">
<g>
	<path fill="#B3B3B3" d="M109.642,81.058c-4.649,0-8.728-3.839-8.728-8.215c0-0.001,0.014-5.809,0.014-9.332
		c0-1.347,0.13-2.724,1.092-2.724c0.554,0,1.032,0.543,1.579,1.36c0.712,1.062,1.735,1.622,3.131,1.711
		c0.081,0.005,0.16,0.007,0.238,0.007c1.004,0,1.589-0.41,2.378-1.217c1.233-1.265,1.29-3.468,1.353-13.669
		c-0.063-10.193-0.119-12.396-1.354-13.662c-0.788-0.807-1.372-1.217-2.372-1.217c-0.079,0-0.16,0.002-0.244,0.008
		c-1.393,0.086-2.417,0.645-3.13,1.708c-0.547,0.817-1.025,1.362-1.579,1.362c-0.962,0-1.092-1.378-1.092-2.727l-0.004-9.393
		c0-4.837-3.566-8.484-8.295-8.484h-48.31c-4.336,0-8.821,3.259-8.821,8.713c0,4.132,0.026,7.752,0.035,8.928l0.003,0.41
		c0,3.004,0.919,3.004,1.809,3.004c0.978,0,1.312-0.513,1.773-1.224c0.523-0.804,1.175-1.804,2.92-1.804
		c3.014,0,3.025,4.761,3.042,11.967l0.007,2.266l-0.007,2.061c-0.017,7.208-0.028,11.97-3.042,11.97
		c-1.746,0-2.396-1.001-2.92-1.806c-0.462-0.711-0.796-1.225-1.773-1.225c-0.89,0-1.809,0-1.809,3.014
		c0,0.207-0.107,10.255-0.107,10.255c0,4.457-3.531,7.952-8.039,7.952H9.843c-4.215,0-8.729-3.197-8.729-7.957
		c0-0.001,0.014-6.313,0.014-9.836c0-1.347,0.13-2.724,1.092-2.724c0.554,0,1.032,0.543,1.579,1.36
		c0.712,1.062,1.735,1.622,3.131,1.711c0.081,0.005,0.16,0.007,0.238,0.007c1.004,0,1.589-0.41,2.378-1.217
		c1.234-1.266,1.291-3.469,1.354-13.669c-0.063-10.192-0.119-12.396-1.354-13.662C8.757,34.26,8.173,33.85,7.173,33.85
		c-0.079,0-0.16,0.002-0.244,0.008c-1.393,0.086-2.417,0.645-3.13,1.708c-0.547,0.817-1.025,1.362-1.579,1.362
		c-0.962,0-1.092-1.378-1.092-2.727c0-3.52-0.014-15.998-0.014-15.998l0.014-0.725v-0.685c0.001-0.775,0.002-1.371-0.014-7.636
		c0-4.376,4.079-8.214,8.729-8.214h19.291l7.719,0.047l110.07-0.047h10.258c4.433,0,8.039,3.684,8.039,8.213v7.75l0.009,0.232
		c0,0.015,0.107,17.523,0.107,17.73c0,3.01,0.92,3.01,1.809,3.01c0.977,0,1.311-0.513,1.773-1.224
		c0.523-0.804,1.175-1.804,2.92-1.804c3.013,0,3.024,4.761,3.041,11.967l0.007,2.267l-0.007,2.061
		c-0.017,7.208-0.028,11.969-3.041,11.969c-1.746,0-2.396-1.001-2.92-1.806c-0.463-0.711-0.797-1.225-1.773-1.225
		c-0.889,0-1.809,0-1.809,3.014c0,0.207-0.107,9.752-0.107,9.752c0,4.524-3.606,8.209-8.039,8.209H109.642z"/>
	<g>
		<path fill="#999999" d="M157.181,1.442c4.164,0,7.539,3.455,7.539,7.713c0,0,0,7.543,0,7.75l0.009,0.25
			c0,0,0.107,17.506,0.107,17.713c0,3.113,0.976,3.51,2.309,3.51c2.567,0,1.824-3.027,4.693-3.027c2.761,0,2.503,5.619,2.548,13.531
			c0,0.035,0,0.066,0,0.1s0,0.064,0,0.1c-0.045,7.91,0.213,13.533-2.548,13.533c-2.869,0-2.126-3.031-4.693-3.031
			c-1.333,0-2.309,0.4-2.309,3.514c0,0.207-0.107,9.746-0.107,9.746c0,4.262-3.375,7.715-7.539,7.715h-29.257h-18.185h-0.106
			c-4.165,0-8.228-3.453-8.228-7.715c0,0,0.014-5.809,0.014-9.332c0-1.683,0.255-2.225,0.592-2.224c0.364,0,0.825,0.633,1.164,1.138
			c0.586,0.875,1.589,1.809,3.514,1.932c0.093,0.006,0.183,0.008,0.271,0.008c1.242,0,1.945-0.56,2.735-1.368
			c1.385-1.42,1.431-3.541,1.495-14.016c-0.064-10.477-0.11-12.594-1.495-14.014c-0.789-0.807-1.491-1.368-2.73-1.368
			c-0.089,0-0.181,0.003-0.275,0.009c-1.925,0.119-2.928,1.055-3.514,1.928c-0.339,0.506-0.8,1.141-1.164,1.141
			c-0.337,0-0.592-0.542-0.592-2.227c0-1.305-0.004-5.113-0.004-9.393c0-5.313-3.951-8.984-8.795-8.984c-20.519,0-15.814,0-48.31,0
			c-4.792,0-9.321,3.631-9.321,9.213c0,4.998,0.039,9.246,0.038,9.332c0,3.113,0.977,3.51,2.309,3.51
			c2.568,0,1.824-3.027,4.693-3.027c2.762,0,2.504,5.619,2.549,13.531c0,0.035,0,0.066,0,0.1s0,0.064,0,0.1
			c-0.045,7.91,0.213,13.533-2.549,13.533c-2.869,0-2.125-3.031-4.693-3.031c-1.332,0-2.309,0.4-2.309,3.514
			c0,0.207-0.107,10.25-0.107,10.25c0,4.262-3.375,7.457-7.539,7.457H9.843c-4.166,0-8.229-3.195-8.229-7.457
			c0,0,0.014-6.313,0.014-9.836c0-1.683,0.255-2.225,0.592-2.224c0.364,0,0.825,0.633,1.164,1.138
			c0.586,0.875,1.59,1.809,3.514,1.932c0.093,0.006,0.183,0.008,0.271,0.008c1.242,0,1.945-0.56,2.735-1.368
			c1.385-1.42,1.432-3.541,1.496-14.016c-0.064-10.477-0.111-12.594-1.496-14.014c-0.789-0.807-1.491-1.368-2.73-1.368
			c-0.089,0-0.181,0.003-0.275,0.009c-1.924,0.119-2.928,1.055-3.514,1.928c-0.339,0.506-0.8,1.141-1.164,1.141
			c-0.337,0-0.592-0.542-0.592-2.227c0-3.52-0.014-15.998-0.014-15.998l0.014-0.715c0-1.52,0.006-0.52-0.014-8.332
			c0-4.258,4.063-7.713,8.229-7.713h0.105h19.186l7.716,0.047l109.332-0.047h0.741H157.181 M157.181,0.442h-10.258h-0.741
			L36.85,0.489l-7.71-0.047H9.948H9.843c-4.916,0-9.229,4.071-9.229,8.713c0.016,6.268,0.015,6.863,0.014,7.638v0.694l-0.014,0.696
			c0,0.02,0.014,12.498,0.014,16.017c0,0.965,0,3.227,1.592,3.227c0.862,0,1.482-0.818,1.995-1.584
			c0.629-0.936,1.501-1.409,2.744-1.486c0.074-0.004,0.145-0.007,0.214-0.007c0.832,0,1.294,0.329,2.016,1.067
			c1.095,1.122,1.15,3.486,1.211,13.321c-0.061,9.823-0.116,12.188-1.212,13.311c-0.721,0.737-1.184,1.066-2.02,1.066
			c-0.068,0-0.138-0.002-0.21-0.006c-1.243-0.08-2.116-0.553-2.743-1.49c-0.514-0.766-1.133-1.582-1.995-1.582
			c-0.306,0-1.051,0.116-1.379,1.188c-0.144,0.469-0.213,1.135-0.213,2.036c0,3.522-0.014,9.833-0.014,9.834
			c0,5.061,4.771,8.459,9.229,8.459H27.39c4.788,0,8.539-3.715,8.539-8.457c0.004-0.399,0.107-10.04,0.107-10.25
			c0-2.514,0.549-2.514,1.309-2.514c0.672,0,0.873,0.256,1.354,0.998c0.526,0.81,1.322,2.034,3.339,2.034
			c3.513,0,3.524-4.96,3.542-12.468c0.001-0.667,0.003-1.354,0.007-2.059v-0.105v-0.1c-0.004-0.711-0.006-1.398-0.007-2.065
			c-0.018-7.507-0.029-12.466-3.542-12.466c-2.017,0-2.813,1.222-3.339,2.031c-0.481,0.741-0.683,0.997-1.354,0.997
			c-0.76,0-1.309,0-1.309-2.51c0-0.004-0.001-0.15-0.003-0.407c-0.009-1.176-0.035-4.794-0.035-8.925
			c0-5.141,4.23-8.213,8.321-8.213h48.31c4.443,0,7.795,3.433,7.795,7.984l0.003,7.142l0.001,2.251c0,0.965,0,3.227,1.592,3.227
			c0.862,0,1.482-0.818,1.995-1.584c0.628-0.937,1.501-1.409,2.744-1.486c0.074-0.004,0.145-0.007,0.214-0.007
			c0.832,0,1.294,0.329,2.016,1.067c1.097,1.125,1.148,3.288,1.21,13.321c-0.062,10.022-0.113,12.185-1.211,13.311
			c-0.721,0.737-1.184,1.066-2.02,1.066c-0.068,0-0.138-0.002-0.21-0.006c-1.243-0.08-2.116-0.553-2.743-1.49
			c-0.514-0.766-1.134-1.582-1.995-1.582c-0.305,0-1.051,0.116-1.379,1.188c-0.144,0.469-0.213,1.135-0.213,2.036
			c0,3.522-0.014,9.33-0.014,9.33c0,4.645,4.312,8.717,9.228,8.717h0.106h18.185h29.257c4.708,0,8.539-3.91,8.539-8.715
			c0.004-0.378,0.107-9.536,0.107-9.746c0-2.514,0.549-2.514,1.309-2.514c0.671,0,0.872,0.256,1.354,0.998
			c0.526,0.81,1.322,2.034,3.339,2.034c3.512,0,3.523-4.96,3.541-12.468c0.001-0.667,0.003-1.354,0.007-2.06v-0.105v-0.1
			c-0.004-0.711-0.006-1.399-0.007-2.065c-0.018-7.507-0.029-12.466-3.541-12.466c-2.017,0-2.813,1.222-3.339,2.031
			c-0.482,0.74-0.683,0.996-1.354,0.996c-0.76,0-1.309,0-1.309-2.51c0-0.208-0.104-17.004-0.107-17.719l-0.01-0.279l0.001-7.715
			C165.72,4.351,161.889,0.442,157.181,0.442L157.181,0.442z"/>
	</g>
</g>
</svg>
